<svg version="1.1" xmlns="http://www.w3.org/2000/svg" style="display: block;" viewBox="0 0 2048 2048" width="1024" height="1024" preserveAspectRatio="none">
<path transform="translate(0,0)" fill="rgb(73,133,232)" d="M 476.66 258.395 C 479.926 257.918 487.6 257.899 490.98 257.888 L 1224.99 257.953 L 1457.19 257.931 L 1528.24 257.943 C 1571.96 257.956 1611.48 254.397 1636.67 294.663 C 1639.53 299.248 1644.28 304.842 1647.61 309.269 C 1666.27 334.08 1684.59 359.14 1702.58 384.442 C 1725.64 416.445 1749.63 447.947 1772.74 479.979 C 1797.31 514.043 1790.14 560.596 1790.1 601.622 L 1790.02 716.11 L 1790.07 1202.39 C 1759.97 1185.34 1708.41 1161.7 1674.08 1157.74 L 1674.07 778.361 L 1674.08 669.136 C 1674.08 647.439 1674.53 623.692 1673.7 602.146 C 1646.69 601.434 1620.94 602.754 1594.5 602.732 L 1457.21 602.007 L 1047.49 601.988 L 589.505 602.708 C 518.385 602.746 445.579 600.608 374.456 602.285 C 372.729 624.321 374.057 664.054 374.057 687.452 L 374.051 854.5 L 374.012 1457.9 L 374.017 1603.09 C 374.021 1616.41 373.164 1662.78 375.635 1673.11 C 386.039 1674.9 432.753 1674.03 446.2 1674.02 L 601.486 1673.96 L 1184.19 1674.06 C 1187.45 1682.59 1189.86 1692.45 1193.21 1700.85 C 1202.94 1725.3 1220.08 1770.84 1238.5 1789.99 L 608.568 1790 L 409.697 1790 L 349.413 1790.1 C 322.351 1790.15 305.515 1793.11 282.929 1774.86 C 253.412 1751.01 257.926 1720.57 257.983 1686.67 L 258.086 1610.8 L 258.06 1352.56 L 258.058 746.863 L 258.028 603.276 C 258.018 582.067 256.251 527.219 261.239 509.498 C 263.22 502.245 266.203 495.304 270.103 488.875 C 287.561 460.233 312.064 431.207 331.476 403.535 C 359.266 363.921 389.066 325.322 417.924 286.465 C 432.928 266.261 452.77 261.056 476.66 258.395 z M 1553.75 485.423 C 1572.22 486.737 1610.42 486.455 1629.13 485.762 C 1620.97 470.296 1596.16 439.734 1584.98 424.448 C 1575.59 411.609 1557.31 384.98 1547.42 373.998 L 500.65 374.04 C 478.682 400.241 459.403 430.903 438.321 457.946 C 432.132 465.885 426.079 474.274 420.439 482.602 L 420.663 484.258 C 424.865 487.034 473.824 485.977 481.615 485.979 L 604.165 485.975 L 1270.67 485.981 L 1463.49 486.008 L 1521.51 486.017 C 1529.29 486.013 1546.44 486.346 1553.75 485.423 z"/>
<path transform="translate(0,0)" fill="rgb(73,133,232)" d="M 1555.71 1226.41 C 1740.9 1211.57 1903.04 1349.66 1917.89 1534.84 C 1932.74 1720.02 1794.66 1882.17 1609.48 1897.03 C 1424.28 1911.88 1262.11 1773.79 1247.27 1588.6 C 1232.42 1403.41 1370.52 1241.24 1555.71 1226.41 z M 1684.76 1717.43 C 1692.2 1711.29 1698.96 1704.13 1705.75 1697.25 C 1712.98 1690.11 1727.38 1676.73 1733.55 1669.58 C 1725.14 1658.58 1707.62 1642.76 1697.35 1632.13 C 1671.17 1605.04 1642.3 1578.4 1616.45 1551.17 C 1615.49 1529.07 1616.05 1504.46 1616.06 1482.12 L 1616.01 1342.02 C 1594.05 1342.03 1570.99 1341.73 1549.11 1342.16 C 1546.24 1351.98 1547.93 1408.73 1548.03 1421 L 1548.13 1538.74 C 1548.13 1543 1547.43 1577.18 1547.5 1577.25 C 1569.36 1602.07 1594.8 1624.52 1616.72 1649.54 C 1623.13 1656.85 1633.27 1663.6 1639.9 1671.04 C 1654.3 1686.8 1669.11 1702.94 1684.76 1717.43 z"/>
<path transform="translate(0,0)" fill="rgb(73,133,232)" d="M 975.952 812.289 C 993.965 810.767 1011.65 813.001 1029.34 813.144 C 1046.83 813.284 1064.69 813.845 1082.08 813.979 L 1082.21 1247.94 C 1092.62 1238.92 1103.49 1227.88 1113.09 1217.94 C 1162.65 1166.59 1216.05 1117.52 1264.96 1065.68 C 1290.69 1092.37 1319.79 1121.21 1346.4 1147.04 C 1340.38 1155.77 1323.03 1172.22 1314.74 1180.49 L 1259.43 1235.69 L 1051.29 1443.86 L 1024.21 1470.84 C 986.696 1435.01 947.928 1394.8 911.081 1357.95 L 701.275 1148.07 C 726.501 1120.6 756.9 1093.32 782.963 1065.69 C 826.183 1110.58 871.92 1153.91 915.569 1198.47 C 930.845 1214.07 947.093 1230.72 962.955 1245.63 L 964.159 1244.92 C 967.905 1236.32 966.024 1208.82 966.038 1197.94 L 966.066 1100.15 L 965.97 814.382 C 968.529 813.618 973.203 812.838 975.952 812.289 z"/>
</svg>